<svg xmlns="http://www.w3.org/2000/svg" width="900" height="480" viewBox="0 0 900 480">
<rect width="100%" height="100%" fill="white"/>
<text x="450.0" y="34.0" font-family="Arial,Helvetica,sans-serif" font-size="23" text-anchor="middle" font-weight="700" fill="#111">Modeled converter-chain dynamic performance</text>
<text x="450.0" y="58.0" font-family="Arial,Helvetica,sans-serif" font-size="14" text-anchor="middle" font-weight="normal" fill="#444">AD9655 model versus AD9655 + AFE model</text>
<line x1="85.0" y1="395.0" x2="865.0" y2="395.0" stroke="#d9d9d9" stroke-width="1" opacity="1"/>
<text x="73.0" y="400.0" font-family="Arial,Helvetica,sans-serif" font-size="12" text-anchor="end" font-weight="normal" fill="#555">75.0</text>
<line x1="85.0" y1="332.5" x2="865.0" y2="332.5" stroke="#d9d9d9" stroke-width="1" opacity="1"/>
<text x="73.0" y="337.5" font-family="Arial,Helvetica,sans-serif" font-size="12" text-anchor="end" font-weight="normal" fill="#555">75.5</text>
<line x1="85.0" y1="270.0" x2="865.0" y2="270.0" stroke="#d9d9d9" stroke-width="1" opacity="1"/>
<text x="73.0" y="275.0" font-family="Arial,Helvetica,sans-serif" font-size="12" text-anchor="end" font-weight="normal" fill="#555">76.0</text>
<line x1="85.0" y1="207.5" x2="865.0" y2="207.5" stroke="#d9d9d9" stroke-width="1" opacity="1"/>
<text x="73.0" y="212.5" font-family="Arial,Helvetica,sans-serif" font-size="12" text-anchor="end" font-weight="normal" fill="#555">76.5</text>
<line x1="85.0" y1="145.0" x2="865.0" y2="145.0" stroke="#d9d9d9" stroke-width="1" opacity="1"/>
<text x="73.0" y="150.0" font-family="Arial,Helvetica,sans-serif" font-size="12" text-anchor="end" font-weight="normal" fill="#555">77.0</text>
<line x1="85.0" y1="82.5" x2="865.0" y2="82.5" stroke="#d9d9d9" stroke-width="1" opacity="1"/>
<text x="73.0" y="87.5" font-family="Arial,Helvetica,sans-serif" font-size="12" text-anchor="end" font-weight="normal" fill="#555">77.5</text>
<line x1="85.0" y1="70.0" x2="85.0" y2="395.0" stroke="#444" stroke-width="1.4" opacity="1"/>
<line x1="85.0" y1="395.0" x2="865.0" y2="395.0" stroke="#444" stroke-width="1.4" opacity="1"/>
<text x="22" y="232.5" transform="rotate(-90 22 232.5)" font-family="Arial,Helvetica,sans-serif" font-size="13" text-anchor="middle" fill="#222">SINAD (dB)</text>
<polygon points="155.0,118.0 368.3,196.2 581.7,175.8 795.0,265.3 795.0,327.9 581.7,230.4 368.3,232.2 155.0,148.7" fill="#2ca02c" opacity="0.10"/>
<polyline points="155.0,118.0 368.3,196.2 581.7,175.8 795.0,265.3" fill="none" stroke="#4c78a8" stroke-width="3.3" stroke-linejoin="round" stroke-linecap="round"/>
<polyline points="155.0,148.7 368.3,232.2 581.7,230.4 795.0,327.9" fill="none" stroke="#2ca02c" stroke-width="3.3" stroke-linejoin="round" stroke-linecap="round"/>
<text x="155.0" y="423.0" font-family="Arial,Helvetica,sans-serif" font-size="12" text-anchor="middle" font-weight="600" fill="#111">DUAL / LOW</text>
<text x="155.0" y="170.7" font-family="Arial,Helvetica,sans-serif" font-size="11" text-anchor="middle" font-weight="normal" fill="#216e21">12.493 ENOB</text>
<text x="368.3" y="423.0" font-family="Arial,Helvetica,sans-serif" font-size="12" text-anchor="middle" font-weight="600" fill="#111">DUAL / HIGH</text>
<text x="368.3" y="254.2" font-family="Arial,Helvetica,sans-serif" font-size="11" text-anchor="middle" font-weight="normal" fill="#216e21">12.383 ENOB</text>
<text x="581.7" y="423.0" font-family="Arial,Helvetica,sans-serif" font-size="12" text-anchor="middle" font-weight="600" fill="#111">FAST / LOW</text>
<text x="581.7" y="252.4" font-family="Arial,Helvetica,sans-serif" font-size="11" text-anchor="middle" font-weight="normal" fill="#216e21">12.385 ENOB</text>
<text x="795.0" y="423.0" font-family="Arial,Helvetica,sans-serif" font-size="12" text-anchor="middle" font-weight="600" fill="#111">FAST / HIGH</text>
<text x="795.0" y="349.9" font-family="Arial,Helvetica,sans-serif" font-size="11" text-anchor="middle" font-weight="normal" fill="#216e21">12.255 ENOB</text>
<line x1="575.0" y1="91.0" x2="615.0" y2="91.0" stroke="#4c78a8" stroke-width="3.3" opacity="1"/>
<text x="625.0" y="96.0" font-family="Arial,Helvetica,sans-serif" font-size="12" text-anchor="start" font-weight="normal" fill="#33597e">AD9655 model only</text>
<line x1="575.0" y1="117.0" x2="615.0" y2="117.0" stroke="#2ca02c" stroke-width="3.3" opacity="1"/>
<text x="625.0" y="122.0" font-family="Arial,Helvetica,sans-serif" font-size="12" text-anchor="start" font-weight="normal" fill="#216e21">AD9655 + AFE model</text>
</svg>
