<svg xmlns="http://www.w3.org/2000/svg" width="900" height="470" viewBox="0 0 900 470">
<rect width="100%" height="100%" fill="white"/>
<text x="450.0" y="34.0" font-family="Arial,Helvetica,sans-serif" font-size="23" text-anchor="middle" font-weight="700" fill="#111">Analog filter bandwidth consistency</text>
<text x="450.0" y="58.0" font-family="Arial,Helvetica,sans-serif" font-size="14" text-anchor="middle" font-weight="normal" fill="#444">16 loaded AC cases</text>
<line x1="90.0" y1="391.9" x2="860.0" y2="391.9" stroke="#d9d9d9" stroke-width="1" opacity="1"/>
<text x="78.0" y="396.9" font-family="Arial,Helvetica,sans-serif" font-size="12" text-anchor="end" font-weight="normal" fill="#555">21</text>
<line x1="90.0" y1="330.8" x2="860.0" y2="330.8" stroke="#d9d9d9" stroke-width="1" opacity="1"/>
<text x="78.0" y="335.8" font-family="Arial,Helvetica,sans-serif" font-size="12" text-anchor="end" font-weight="normal" fill="#555">25</text>
<line x1="90.0" y1="254.3" x2="860.0" y2="254.3" stroke="#d9d9d9" stroke-width="1" opacity="1"/>
<text x="78.0" y="259.3" font-family="Arial,Helvetica,sans-serif" font-size="12" text-anchor="end" font-weight="normal" fill="#555">30</text>
<line x1="90.0" y1="177.8" x2="860.0" y2="177.8" stroke="#d9d9d9" stroke-width="1" opacity="1"/>
<text x="78.0" y="182.8" font-family="Arial,Helvetica,sans-serif" font-size="12" text-anchor="end" font-weight="normal" fill="#555">35</text>
<line x1="90.0" y1="101.4" x2="860.0" y2="101.4" stroke="#d9d9d9" stroke-width="1" opacity="1"/>
<text x="78.0" y="106.4" font-family="Arial,Helvetica,sans-serif" font-size="12" text-anchor="end" font-weight="normal" fill="#555">40</text>
<line x1="90.0" y1="70.0" x2="90.0" y2="395.0" stroke="#444" stroke-width="1.4" opacity="1"/>
<line x1="90.0" y1="395.0" x2="860.0" y2="395.0" stroke="#444" stroke-width="1.4" opacity="1"/>
<text x="22.0" y="232.5" transform="rotate(-90 22 232.5)" font-family="Arial,Helvetica,sans-serif" font-size="13" text-anchor="middle" font-weight="normal" fill="#222">−3 dB bandwidth (MHz)</text>
<rect x="258.1" y="377.0" width="95" height="3.0" fill="#1f77b4" opacity="0.18"/>
<line x1="263.6" y1="377.3" x2="277.6" y2="377.3" stroke="#1f77b4" stroke-width="2.4" opacity="1"/>
<line x1="273.6" y1="377.3" x2="287.6" y2="377.3" stroke="#1f77b4" stroke-width="2.4" opacity="1"/>
<line x1="283.6" y1="377.0" x2="297.6" y2="377.0" stroke="#1f77b4" stroke-width="2.4" opacity="1"/>
<line x1="293.6" y1="377.0" x2="307.6" y2="377.0" stroke="#1f77b4" stroke-width="2.4" opacity="1"/>
<line x1="303.6" y1="377.3" x2="317.6" y2="377.3" stroke="#1f77b4" stroke-width="2.4" opacity="1"/>
<line x1="313.6" y1="377.0" x2="327.6" y2="377.0" stroke="#1f77b4" stroke-width="2.4" opacity="1"/>
<line x1="323.6" y1="377.3" x2="337.6" y2="377.3" stroke="#1f77b4" stroke-width="2.4" opacity="1"/>
<line x1="333.6" y1="377.0" x2="347.6" y2="377.0" stroke="#1f77b4" stroke-width="2.4" opacity="1"/>
<line x1="258.1" y1="377.2" x2="353.1" y2="377.2" stroke="#1f77b4" stroke-width="4" opacity="1"/>
<text x="305.6" y="423.0" font-family="Arial,Helvetica,sans-serif" font-size="13" text-anchor="middle" font-weight="600" fill="#1f77b4">DUAL 20 MHz path</text>
<text x="305.6" y="401.3" font-family="Arial,Helvetica,sans-serif" font-size="12" text-anchor="middle" font-weight="normal" fill="#1f77b4">21.955–21.978 MHz</text>
<rect x="596.9" y="84.7" width="95" height="3.0" fill="#ff7f0e" opacity="0.18"/>
<line x1="602.4" y1="85.9" x2="616.4" y2="85.9" stroke="#ff7f0e" stroke-width="2.4" opacity="1"/>
<line x1="612.4" y1="84.7" x2="626.4" y2="84.7" stroke="#ff7f0e" stroke-width="2.4" opacity="1"/>
<line x1="622.4" y1="85.9" x2="636.4" y2="85.9" stroke="#ff7f0e" stroke-width="2.4" opacity="1"/>
<line x1="632.4" y1="84.7" x2="646.4" y2="84.7" stroke="#ff7f0e" stroke-width="2.4" opacity="1"/>
<line x1="642.4" y1="85.9" x2="656.4" y2="85.9" stroke="#ff7f0e" stroke-width="2.4" opacity="1"/>
<line x1="652.4" y1="84.7" x2="666.4" y2="84.7" stroke="#ff7f0e" stroke-width="2.4" opacity="1"/>
<line x1="662.4" y1="85.9" x2="676.4" y2="85.9" stroke="#ff7f0e" stroke-width="2.4" opacity="1"/>
<line x1="672.4" y1="84.7" x2="686.4" y2="84.7" stroke="#ff7f0e" stroke-width="2.4" opacity="1"/>
<line x1="596.9" y1="85.3" x2="691.9" y2="85.3" stroke="#ff7f0e" stroke-width="4" opacity="1"/>
<text x="644.4" y="423.0" font-family="Arial,Helvetica,sans-serif" font-size="13" text-anchor="middle" font-weight="600" fill="#ff7f0e">FAST 40 MHz path</text>
<text x="644.4" y="109.9" font-family="Arial,Helvetica,sans-serif" font-size="12" text-anchor="middle" font-weight="normal" fill="#ff7f0e">41.011–41.091 MHz</text>
</svg>
